<svg id="user" xmlns="http://www.w3.org/2000/svg" width="71.75" height="71.75" viewBox="0 0 71.75 71.75">
  <g id="Group_94" data-name="Group 94" transform="translate(46.17 69.194)">
    <path id="Path_53" data-name="Path 53" d="M44.242,65.256c-.374.126-.75.249-1.128.361C43.493,65.5,43.868,65.381,44.242,65.256Z" transform="translate(-43.113 -64.568)" fill="#f9ede0"/>
    <path id="Path_54" data-name="Path 54" d="M46,64.613c-.4.161-.807.319-1.217.465C45.191,64.931,45.6,64.774,46,64.613Z" transform="translate(-42.995 -64.613)" fill="#f9ede0"/>
  </g>
  <path id="Path_86" data-name="Path 86" d="M35.875,0A35.875,35.875,0,1,1,0,35.875,35.875,35.875,0,0,1,35.875,0Z" fill="#dbdbdb"/>
  <g id="Group_95" data-name="Group 95" transform="translate(20.358 68.228)">
    <path id="Path_55" data-name="Path 55" d="M42.511,65.785q-.549.152-1.107.288Q41.962,65.938,42.511,65.785Z" transform="translate(-17.423 -63.564)" fill="#f9ede0"/>
    <path id="Path_56" data-name="Path 56" d="M31.159,66.91c-.438-.031-.875-.064-1.306-.111C30.286,66.846,30.723,66.879,31.159,66.91Z" transform="translate(-18.242 -63.492)" fill="#f9ede0"/>
    <path id="Path_57" data-name="Path 57" d="M25.668,66.072q-.557-.135-1.107-.288Q25.112,65.938,25.668,66.072Z" transform="translate(-18.617 -63.564)" fill="#f9ede0"/>
    <path id="Path_58" data-name="Path 58" d="M29.238,66.722c-.392-.051-.783-.1-1.172-.167C28.453,66.618,28.845,66.67,29.238,66.722Z" transform="translate(-18.369 -63.51)" fill="#f9ede0"/>
    <path id="Path_59" data-name="Path 59" d="M33.63,67c-.661,0-1.315-.021-1.967-.056C32.315,66.983,32.97,67,33.63,67Z" transform="translate(-18.114 -63.482)" fill="#f9ede0"/>
    <path id="Path_60" data-name="Path 60" d="M27.425,66.442c-.376-.069-.751-.144-1.122-.225C26.674,66.3,27.049,66.373,27.425,66.442Z" transform="translate(-18.494 -63.534)" fill="#f9ede0"/>
    <path id="Path_61" data-name="Path 61" d="M20.7,64.468q-.837-.351-1.653-.739Q19.865,64.119,20.7,64.468Z" transform="translate(-19.008 -63.71)" fill="#f9ede0"/>
    <path id="Path_62" data-name="Path 62" d="M22.3,65.079c-.409-.147-.814-.3-1.217-.465C21.485,64.774,21.89,64.931,22.3,65.079Z" transform="translate(-18.864 -63.647)" fill="#f9ede0"/>
    <path id="Path_63" data-name="Path 63" d="M35.467,66.948c-.652.035-1.306.056-1.967.056C34.161,67,34.815,66.983,35.467,66.948Z" transform="translate(-17.983 -63.482)" fill="#f9ede0"/>
    <path id="Path_64" data-name="Path 64" d="M37.233,66.8c-.433.047-.87.08-1.306.111C36.364,66.879,36.8,66.846,37.233,66.8Z" transform="translate(-17.811 -63.492)" fill="#f9ede0"/>
    <path id="Path_65" data-name="Path 65" d="M40.772,66.217c-.372.082-.746.156-1.122.225C40.025,66.373,40.4,66.3,40.772,66.217Z" transform="translate(-17.547 -63.534)" fill="#f9ede0"/>
    <path id="Path_66" data-name="Path 66" d="M39.013,66.554c-.388.063-.779.116-1.172.167C38.232,66.67,38.624,66.618,39.013,66.554Z" transform="translate(-17.676 -63.51)" fill="#f9ede0"/>
    <path id="Path_67" data-name="Path 67" d="M48.053,63.732q-.811.388-1.645.736C46.963,64.236,47.513,63.992,48.053,63.732Z" transform="translate(-17.068 -63.71)" fill="#f9ede0"/>
    <path id="Path_68" data-name="Path 68" d="M23.961,65.617c-.38-.114-.755-.236-1.128-.361C23.207,65.381,23.582,65.5,23.961,65.617Z" transform="translate(-18.74 -63.602)" fill="#f9ede0"/>
    <path id="Path_69" data-name="Path 69" d="M46.443,64.419c-.173.073-.35.137-.525.207C46.091,64.557,46.268,64.492,46.443,64.419Z" transform="translate(-17.103 -63.661)" fill="#f9ede0"/>
    <path id="Path_70" data-name="Path 70" d="M47.994,63.711l-.049.022C47.96,63.726,47.978,63.72,47.994,63.711Z" transform="translate(-16.959 -63.711)" fill="#f9ede0"/>
    <path id="Path_71" data-name="Path 71" d="M26.352,66.228q-.38-.084-.757-.174Q25.972,66.145,26.352,66.228Z" transform="translate(-18.544 -63.545)" fill="#f9ede0"/>
    <path id="Path_72" data-name="Path 72" d="M28.116,66.563c-.256-.042-.511-.089-.766-.136C27.606,66.474,27.86,66.522,28.116,66.563Z" transform="translate(-18.419 -63.519)" fill="#f9ede0"/>
    <path id="Path_73" data-name="Path 73" d="M31.705,66.951c-.212-.011-.422-.033-.632-.048C31.285,66.918,31.494,66.94,31.705,66.951Z" transform="translate(-18.156 -63.485)" fill="#f9ede0"/>
    <path id="Path_74" data-name="Path 74" d="M29.9,66.805c-.249-.027-.495-.062-.742-.094C29.407,66.743,29.654,66.778,29.9,66.805Z" transform="translate(-18.291 -63.499)" fill="#f9ede0"/>
    <path id="Path_75" data-name="Path 75" d="M19.053,63.731l-.042-.019Z" transform="translate(-19.011 -63.711)" fill="#f9ede0"/>
    <path id="Path_76" data-name="Path 76" d="M35.969,66.9c-.212.015-.421.037-.632.048C35.548,66.94,35.757,66.918,35.969,66.9Z" transform="translate(-17.853 -63.485)" fill="#f9ede0"/>
    <path id="Path_77" data-name="Path 77" d="M43.161,65.593c-.24.072-.481.139-.724.205C42.68,65.732,42.921,65.665,43.161,65.593Z" transform="translate(-17.35 -63.578)" fill="#f9ede0"/>
    <path id="Path_78" data-name="Path 78" d="M44.825,65.048c-.218.078-.438.148-.657.223C44.387,65.2,44.607,65.126,44.825,65.048Z" transform="translate(-17.227 -63.616)" fill="#f9ede0"/>
    <path id="Path_79" data-name="Path 79" d="M21.118,64.627c-.174-.069-.351-.135-.525-.207C20.766,64.492,20.943,64.557,21.118,64.627Z" transform="translate(-18.898 -63.661)" fill="#f9ede0"/>
    <path id="Path_80" data-name="Path 80" d="M22.877,65.27c-.219-.074-.44-.145-.657-.223C22.436,65.126,22.656,65.2,22.877,65.27Z" transform="translate(-18.783 -63.616)" fill="#f9ede0"/>
    <path id="Path_81" data-name="Path 81" d="M37.889,66.711c-.247.032-.494.068-.742.094C37.4,66.778,37.642,66.743,37.889,66.711Z" transform="translate(-17.725 -63.499)" fill="#f9ede0"/>
    <path id="Path_82" data-name="Path 82" d="M41.455,66.053q-.377.091-.757.174Q41.078,66.146,41.455,66.053Z" transform="translate(-17.473 -63.545)" fill="#f9ede0"/>
    <path id="Path_83" data-name="Path 83" d="M39.7,66.427c-.255.047-.508.1-.766.136C39.191,66.522,39.445,66.474,39.7,66.427Z" transform="translate(-17.598 -63.519)" fill="#f9ede0"/>
    <path id="Path_84" data-name="Path 84" d="M24.61,65.8c-.241-.067-.484-.134-.724-.205C24.127,65.665,24.368,65.732,24.61,65.8Z" transform="translate(-18.665 -63.578)" fill="#f9ede0"/>
  </g>
  <path id="Path_85" data-name="Path 85" d="M43.541,37.6a14.845,14.845,0,1,0-16.423,0h0a0,0,0,0,1,0,0A28.486,28.486,0,0,0,7.7,58.022h0c.391.471.8.932,1.211,1.383.1.11.205.215.308.323.319.339.642.673.974,1,.137.135.277.265.417.4.307.292.617.58.934.861.157.139.317.276.475.412q.466.4.945.782c.168.135.338.267.507.4q.486.375.986.73c.172.122.341.247.516.367.351.242.709.475,1.069.705.162.1.32.209.484.311.416.256.839.5,1.266.741.113.063.223.131.336.193q.828.453,1.681.865l.042.019q.815.39,1.653.739c.173.073.35.137.525.207.4.161.807.319,1.217.465.218.078.438.148.657.223.374.126.75.249,1.128.361.24.072.481.139.724.205q.549.152,1.107.288.377.091.757.174c.372.082.746.156,1.122.225.255.047.508.1.766.136.388.063.779.116,1.172.167.247.032.494.068.742.094.433.047.87.08,1.306.111.212.015.421.037.632.048.652.037,1.306.058,1.967.058s1.315-.021,1.967-.056c.212-.011.422-.033.632-.048.438-.031.875-.064,1.306-.111.249-.027.495-.062.742-.094.392-.051.783-.1,1.172-.167.256-.042.511-.089.766-.136.376-.069.751-.144,1.122-.225q.38-.083.757-.174.557-.135,1.107-.288c.241-.067.484-.134.724-.205.38-.114.755-.236,1.128-.361.219-.074.44-.145.657-.223.409-.147.814-.3,1.217-.465.174-.069.351-.135.525-.207.555-.233,1.1-.476,1.645-.736l.049-.022q.854-.41,1.681-.865c.114-.062.224-.13.336-.193.427-.24.85-.485,1.266-.741.163-.1.323-.207.484-.311.36-.23.717-.464,1.069-.705.173-.12.344-.244.516-.367q.5-.358.986-.73c.171-.131.339-.265.507-.4q.479-.382.945-.782c.16-.136.319-.273.475-.412.317-.281.627-.569.934-.861.139-.132.28-.263.417-.4q.5-.49.974-1c.1-.109.207-.214.308-.323.414-.452.82-.912,1.211-1.383h0A28.482,28.482,0,0,0,43.541,37.6Z" transform="translate(0.546 0.737)" fill="#a5a5a5"/>
</svg>
