<svg xmlns="http://www.w3.org/2000/svg" width="21.292" height="23.975" viewBox="0 0 21.292 23.975">
  <g id="delete" transform="translate(-22.893 0.1)">
    <g id="Group_235" data-name="Group 235" transform="translate(22.993 0)">
      <g id="Group_234" data-name="Group 234" transform="translate(0)">
        <path id="Path_118" data-name="Path 118" d="M77.055,114.909H61.632a.61.61,0,0,0-.457.152.518.518,0,0,0-.152.457l1.585,13.807a3.017,3.017,0,0,0,3.017,2.652h7.681a3.017,3.017,0,0,0,3.048-2.743l1.311-13.777a.518.518,0,0,0-.152-.4A.609.609,0,0,0,77.055,114.909Zm-1.92,14.264a1.768,1.768,0,0,1-1.829,1.585H65.625a1.737,1.737,0,0,1-1.8-1.554L62.3,116.128H76.384Z" transform="translate(-58.797 -108.203)" fill="#888d9b" stroke="#707070" stroke-width="0.2"/>
        <path id="Path_119" data-name="Path 119" d="M43.475,2.743H37.2V1.768A1.707,1.707,0,0,0,35.552,0H31.619a1.707,1.707,0,0,0-1.738,1.675q0,.046,0,.093v.975H23.6a.61.61,0,0,0,0,1.219H43.475a.61.61,0,1,0,0-1.219Zm-7.5-.975v.975H31.1V1.768a.488.488,0,0,1,.518-.549h3.84a.488.488,0,0,1,.521.452A.482.482,0,0,1,35.977,1.768Z" transform="translate(-22.993 0)" fill="#888d9b" stroke="#707070" stroke-width="0.2"/>
      </g>
    </g>
  </g>
</svg>
