<svg id="minus" xmlns="http://www.w3.org/2000/svg" width="22" height="22.538" viewBox="0 0 22 22.538">
  <path id="Path_112" data-name="Path 112" d="M11,22.538A11.149,11.149,0,0,1,0,11.269,11.149,11.149,0,0,1,11,0,11.149,11.149,0,0,1,22,11.269,11.149,11.149,0,0,1,11,22.538ZM11,1.409a9.756,9.756,0,0,0-9.625,9.86A9.756,9.756,0,0,0,11,21.129a9.756,9.756,0,0,0,9.625-9.86A9.756,9.756,0,0,0,11,1.409Zm0,0" fill="#888d9b"/>
  <path id="Path_113" data-name="Path 113" d="M138.565,241.409H128.7a.7.7,0,1,1,0-1.409h9.86a.7.7,0,0,1,0,1.409Zm0,0" transform="translate(-122.634 -229.435)" fill="#888d9b"/>
</svg>
