<svg xmlns="http://www.w3.org/2000/svg" width="16.054" height="16.054" viewBox="0 0 16.054 16.054">
  <g id="Group_256" data-name="Group 256" transform="translate(0 28)">
    <g id="vuesax_linear_call" data-name="vuesax/linear/call" transform="translate(0 -28)">
      <g id="call">
        <g id="call-2" data-name="call" transform="translate(1.217 1.217)">
          <path id="Vector" d="M13.6,11.121a1.733,1.733,0,0,1-.17.742,2.81,2.81,0,0,1-.463.695,3.071,3.071,0,0,1-1.117.8,3.421,3.421,0,0,1-1.328.259,5.677,5.677,0,0,1-2.221-.5A11.964,11.964,0,0,1,5.96,11.775,19.582,19.582,0,0,1,3.726,9.868a19.351,19.351,0,0,1-1.9-2.227A12.141,12.141,0,0,1,.49,5.319,5.735,5.735,0,0,1,0,3.092,3.523,3.523,0,0,1,.245,1.777,3.135,3.135,0,0,1,1.029.64,2,2,0,0,1,2.445,0,1.28,1.28,0,0,1,3,.123,1.11,1.11,0,0,1,3.453.5l1.58,2.227a2.331,2.331,0,0,1,.272.477,1.076,1.076,0,0,1,.1.415.924.924,0,0,1-.143.484,2.316,2.316,0,0,1-.381.484l-.518.538A.364.364,0,0,0,4.25,5.4a.618.618,0,0,0,.02.157c.02.054.041.1.054.136a5.651,5.651,0,0,0,.633.872c.307.354.633.715.988,1.076s.722.695,1.083,1a5.228,5.228,0,0,0,.879.627c.034.014.075.034.123.054a.47.47,0,0,0,.17.027.375.375,0,0,0,.279-.116L9,8.724a2.09,2.09,0,0,1,.49-.381A.907.907,0,0,1,9.972,8.2a1.087,1.087,0,0,1,.415.089,2.634,2.634,0,0,1,.477.266l2.255,1.6a1.033,1.033,0,0,1,.375.436A1.4,1.4,0,0,1,13.6,11.121Z" fill="none" stroke="#292d32" stroke-width="1"/>
        </g>
        <path id="Vector-2" data-name="Vector" d="M0,0H16.054V16.054H0Z" fill="none" opacity="0"/>
      </g>
    </g>
  </g>
</svg>
