<svg id="plus" xmlns="http://www.w3.org/2000/svg" width="22" height="22" viewBox="0 0 22 22">
  <path id="Path_109" data-name="Path 109" d="M11,22A11,11,0,1,1,22,11,11.012,11.012,0,0,1,11,22ZM11,1.375A9.625,9.625,0,1,0,20.625,11,9.636,9.636,0,0,0,11,1.375Zm0,0" fill="#888d9b"/>
  <path id="Path_110" data-name="Path 110" d="M144.161,242.155H129.077a1.077,1.077,0,1,1,0-2.155h15.083a1.077,1.077,0,1,1,0,2.155Zm0,0" transform="translate(-125.619 -230.077)" fill="#888d9b"/>
  <path id="Path_111" data-name="Path 111" d="M241.077,145.238A1.078,1.078,0,0,1,240,144.161V129.077a1.077,1.077,0,0,1,2.155,0v15.083A1.078,1.078,0,0,1,241.077,145.238Zm0,0" transform="translate(-230.077 -125.619)" fill="#888d9b"/>
</svg>
