<svg id="Group_255" data-name="Group 255" xmlns="http://www.w3.org/2000/svg" width="17" height="17" viewBox="0 0 17 17">
  <g id="vuesax_linear_card-pos" data-name="vuesax/linear/card-pos">
    <g id="card-pos">
      <path id="Vector" d="M0,8.465,8.465,0" transform="translate(2.784 2.783)" fill="none" stroke="#292d32" stroke-linecap="round" stroke-linejoin="round" stroke-width="1"/>
      <path id="Vector-2" data-name="Vector" d="M0,.85.85,0" transform="translate(7.863 12.098)" fill="none" stroke="#292d32" stroke-linecap="round" stroke-linejoin="round" stroke-width="1"/>
      <path id="Vector-3" data-name="Vector" d="M0,1.693,1.693,0" transform="translate(9.77 9.349)" fill="none" stroke="#292d32" stroke-linecap="round" stroke-linejoin="round" stroke-width="1"/>
      <path id="Vector-4" data-name="Vector" d="M1.134,5.835l4.7-4.7c1.5-1.5,2.253-1.509,3.74-.021l3.478,3.478c1.488,1.488,1.48,2.238-.021,3.74l-4.7,4.7c-1.5,1.5-2.253,1.509-3.74.021L1.113,9.575C-.375,8.087-.375,7.344,1.134,5.835Z" transform="translate(1.417 1.418)" fill="none" stroke="#292d32" stroke-linecap="round" stroke-linejoin="round" stroke-width="1"/>
      <path id="Vector-5" data-name="Vector" d="M0,0H14.167" transform="translate(1.417 15.582)" fill="none" stroke="#292d32" stroke-linecap="round" stroke-linejoin="round" stroke-width="1"/>
      <path id="Vector-6" data-name="Vector" d="M0,0H17V17H0Z" fill="none" opacity="0"/>
    </g>
  </g>
</svg>
